<svg width="49" height="49" viewBox="0 0 49 49" fill="none" xmlns="http://www.w3.org/2000/svg">
<rect x="0.5" y="0.5" width="48" height="48" rx="8" fill="white" fill-opacity="0.2"/>
<path d="M24.9 24.7933C25.6114 24.1775 26.1821 23.4159 26.5732 22.56C26.9643 21.7042 27.1667 20.7743 27.1667 19.8333C27.1667 18.0652 26.4643 16.3695 25.2141 15.1193C23.9638 13.8691 22.2681 13.1667 20.5 13.1667C18.7319 13.1667 17.0362 13.8691 15.786 15.1193C14.5357 16.3695 13.8333 18.0652 13.8333 19.8333C13.8333 20.7743 14.0357 21.7042 14.4268 22.56C14.8179 23.4159 15.3886 24.1775 16.1 24.7933C14.2335 25.6385 12.65 27.0034 11.5387 28.7247C10.4273 30.4461 9.83531 32.4511 9.83334 34.5C9.83334 34.8536 9.97382 35.1928 10.2239 35.4428C10.4739 35.6929 10.8131 35.8333 11.1667 35.8333C11.5203 35.8333 11.8594 35.6929 12.1095 35.4428C12.3595 35.1928 12.5 34.8536 12.5 34.5C12.5 32.3783 13.3429 30.3434 14.8432 28.8432C16.3434 27.3429 18.3783 26.5 20.5 26.5C22.6217 26.5 24.6566 27.3429 26.1569 28.8432C27.6572 30.3434 28.5 32.3783 28.5 34.5C28.5 34.8536 28.6405 35.1928 28.8905 35.4428C29.1406 35.6929 29.4797 35.8333 29.8333 35.8333C30.187 35.8333 30.5261 35.6929 30.7762 35.4428C31.0262 35.1928 31.1667 34.8536 31.1667 34.5C31.1647 32.4511 30.5727 30.4461 29.4614 28.7247C28.3501 27.0034 26.7665 25.6385 24.9 24.7933ZM20.5 23.8333C19.7089 23.8333 18.9355 23.5987 18.2777 23.1592C17.6199 22.7197 17.1072 22.095 16.8045 21.3641C16.5017 20.6332 16.4225 19.8289 16.5769 19.053C16.7312 18.2771 17.1122 17.5643 17.6716 17.0049C18.231 16.4455 18.9437 16.0645 19.7196 15.9102C20.4956 15.7559 21.2998 15.8351 22.0307 16.1378C22.7616 16.4406 23.3864 16.9533 23.8259 17.6111C24.2654 18.2689 24.5 19.0422 24.5 19.8333C24.5 20.8942 24.0786 21.9116 23.3284 22.6618C22.5783 23.4119 21.5609 23.8333 20.5 23.8333ZM33.4867 24.26C34.34 23.2991 34.8974 22.1121 35.0917 20.8418C35.2861 19.5715 35.1092 18.2721 34.5824 17.1C34.0555 15.9279 33.2011 14.9331 32.122 14.2352C31.0429 13.5374 29.7851 13.1663 28.5 13.1667C28.1464 13.1667 27.8073 13.3071 27.5572 13.5572C27.3072 13.8072 27.1667 14.1464 27.1667 14.5C27.1667 14.8536 27.3072 15.1928 27.5572 15.4428C27.8073 15.6929 28.1464 15.8333 28.5 15.8333C29.5609 15.8333 30.5783 16.2548 31.3284 17.0049C32.0786 17.7551 32.5 18.7725 32.5 19.8333C32.4981 20.5337 32.3124 21.2212 31.9614 21.8272C31.6104 22.4333 31.1065 22.9365 30.5 23.2867C30.3023 23.4007 30.1372 23.5636 30.0205 23.7597C29.9038 23.9558 29.8393 24.1785 29.8333 24.4067C29.8278 24.633 29.8799 24.8571 29.9849 25.0577C30.0899 25.2583 30.2442 25.4289 30.4333 25.5533L30.9533 25.9L31.1267 25.9933C32.7339 26.7556 34.0898 27.9613 35.0346 29.4684C35.9795 30.9755 36.4741 32.7213 36.46 34.5C36.46 34.8536 36.6005 35.1928 36.8505 35.4428C37.1006 35.6929 37.4397 35.8333 37.7933 35.8333C38.147 35.8333 38.4861 35.6929 38.7362 35.4428C38.9862 35.1928 39.1267 34.8536 39.1267 34.5C39.1376 32.4539 38.6251 30.439 37.638 28.6468C36.6508 26.8545 35.2218 25.3444 33.4867 24.26Z" fill="#E0E0E0"/>
</svg>
