<svg width="49" height="49" viewBox="0 0 49 49" fill="none" xmlns="http://www.w3.org/2000/svg">
<rect x="0.5" y="0.5" width="48" height="48" rx="8" fill="white" fill-opacity="0.2"/>
<path d="M33.8333 24.5H24.5V15.1667C24.5 14.3667 23.9667 13.8333 23.1667 13.8333C16.5 13.8333 11.1667 19.1667 11.1667 25.8333C11.1667 32.5 16.5 37.8333 23.1667 37.8333C29.8333 37.8333 35.1667 32.5 35.1667 25.8333C35.1667 25.0333 34.6333 24.5 33.8333 24.5ZM24.5 35.0333C19.4333 35.8333 14.6333 32.2333 13.9667 27.1667C13.1667 22.1 16.7667 17.3 21.8333 16.6333V25.8333C21.8333 26.6333 22.3667 27.1667 23.1667 27.1667H32.3667C31.8333 31.3 28.6333 34.5 24.5 35.0333ZM28.5 11.1667C27.7 11.1667 27.1667 11.7 27.1667 12.5V20.5C27.1667 21.3 27.7 21.8333 28.5 21.8333H36.5C37.3 21.8333 37.8333 21.3 37.8333 20.5C37.8333 15.3 33.7 11.1667 28.5 11.1667ZM29.8333 19.1667V13.9667C32.5 14.5 34.5 16.5 35.0333 19.1667H29.8333Z" fill="white" fill-opacity="0.65"/>
</svg>
