<svg width="49" height="49" viewBox="0 0 49 49" fill="none" xmlns="http://www.w3.org/2000/svg">
<rect x="0.5" y="0.5" width="48" height="48" rx="8" fill="white" fill-opacity="0.2"/>
<path d="M37.8333 11.1667H11.1667C10.813 11.1667 10.4739 11.3071 10.2239 11.5572C9.97381 11.8072 9.83334 12.1464 9.83334 12.5V23.1667C9.83334 23.5203 9.97381 23.8594 10.2239 24.1095C10.4739 24.3595 10.813 24.5 11.1667 24.5H15.1667V36.5C15.1667 36.8536 15.3071 37.1928 15.5572 37.4428C15.8072 37.6929 16.1464 37.8333 16.5 37.8333H32.5C32.8536 37.8333 33.1928 37.6929 33.4428 37.4428C33.6929 37.1928 33.8333 36.8536 33.8333 36.5V24.5H37.8333C38.187 24.5 38.5261 24.3595 38.7761 24.1095C39.0262 23.8594 39.1667 23.5203 39.1667 23.1667V12.5C39.1667 12.1464 39.0262 11.8072 38.7761 11.5572C38.5261 11.3071 38.187 11.1667 37.8333 11.1667ZM17.8333 35.1667V32.5C18.5406 32.5 19.2189 32.781 19.719 33.2811C20.219 33.7812 20.5 34.4594 20.5 35.1667H17.8333ZM31.1667 35.1667H28.5C28.5 34.4594 28.781 33.7812 29.281 33.2811C29.7811 32.781 30.4594 32.5 31.1667 32.5V35.1667ZM31.1667 29.8333C29.7522 29.8333 28.3956 30.3952 27.3954 31.3954C26.3952 32.3956 25.8333 33.7522 25.8333 35.1667H23.1667C23.1667 33.7522 22.6048 32.3956 21.6046 31.3954C20.6044 30.3952 19.2478 29.8333 17.8333 29.8333V19.1667H31.1667V29.8333ZM36.5 21.8333H33.8333V17.8333C33.8333 17.4797 33.6929 17.1406 33.4428 16.8905C33.1928 16.6405 32.8536 16.5 32.5 16.5H16.5C16.1464 16.5 15.8072 16.6405 15.5572 16.8905C15.3071 17.1406 15.1667 17.4797 15.1667 17.8333V21.8333H12.5V13.8333H36.5V21.8333ZM24.5 28.5C25.2911 28.5 26.0645 28.2654 26.7223 27.8259C27.3801 27.3864 27.8928 26.7616 28.1955 26.0307C28.4983 25.2998 28.5775 24.4956 28.4231 23.7196C28.2688 22.9437 27.8878 22.231 27.3284 21.6716C26.769 21.1122 26.0563 20.7312 25.2804 20.5769C24.5044 20.4225 23.7002 20.5017 22.9693 20.8045C22.2384 21.1072 21.6136 21.6199 21.1741 22.2777C20.7346 22.9355 20.5 23.7089 20.5 24.5C20.5 25.5609 20.9214 26.5783 21.6716 27.3284C22.4217 28.0786 23.4391 28.5 24.5 28.5ZM24.5 23.1667C24.7637 23.1667 25.0215 23.2449 25.2408 23.3914C25.46 23.5379 25.6309 23.7461 25.7318 23.9898C25.8328 24.2334 25.8592 24.5015 25.8077 24.7601C25.7563 25.0188 25.6293 25.2563 25.4428 25.4428C25.2563 25.6293 25.0188 25.7563 24.7601 25.8077C24.5015 25.8592 24.2334 25.8328 23.9898 25.7318C23.7461 25.6309 23.5379 25.46 23.3914 25.2408C23.2449 25.0215 23.1667 24.7637 23.1667 24.5C23.1667 24.1464 23.3071 23.8072 23.5572 23.5572C23.8072 23.3071 24.1464 23.1667 24.5 23.1667Z" fill="white" fill-opacity="0.65"/>
</svg>
