<svg width="49" height="49" viewBox="0 0 49 49" fill="none" xmlns="http://www.w3.org/2000/svg">
<rect x="0.5" y="0.5" width="48" height="48" rx="8" fill="white" fill-opacity="0.2"/>
<path d="M21.1667 22.5H24.5C24.8536 22.5 25.1928 22.3595 25.4428 22.1095C25.6929 21.8594 25.8333 21.5203 25.8333 21.1667C25.8333 20.813 25.6929 20.4739 25.4428 20.2239C25.1928 19.9738 24.8536 19.8333 24.5 19.8333H23.1667V19.1667C23.1667 18.813 23.0262 18.4739 22.7761 18.2239C22.5261 17.9738 22.187 17.8333 21.8333 17.8333C21.4797 17.8333 21.1406 17.9738 20.8905 18.2239C20.6405 18.4739 20.5 18.813 20.5 19.1667V19.9C19.6899 20.0645 18.9698 20.5241 18.4795 21.1897C17.9893 21.8552 17.7638 22.6792 17.8469 23.5017C17.9299 24.3241 18.3156 25.0864 18.9291 25.6404C19.5426 26.1945 20.34 26.5008 21.1667 26.5H22.5C22.6768 26.5 22.8464 26.5702 22.9714 26.6953C23.0964 26.8203 23.1667 26.9899 23.1667 27.1667C23.1667 27.3435 23.0964 27.513 22.9714 27.6381C22.8464 27.7631 22.6768 27.8333 22.5 27.8333H19.1667C18.813 27.8333 18.4739 27.9738 18.2239 28.2239C17.9738 28.4739 17.8333 28.813 17.8333 29.1667C17.8333 29.5203 17.9738 29.8594 18.2239 30.1095C18.4739 30.3595 18.813 30.5 19.1667 30.5H20.5V31.1667C20.5 31.5203 20.6405 31.8594 20.8905 32.1095C21.1406 32.3595 21.4797 32.5 21.8333 32.5C22.187 32.5 22.5261 32.3595 22.7761 32.1095C23.0262 31.8594 23.1667 31.5203 23.1667 31.1667V30.4333C23.9768 30.2688 24.6969 29.8092 25.1871 29.1436C25.6774 28.4781 25.9029 27.6541 25.8198 26.8317C25.7367 26.0092 25.351 25.247 24.7376 24.6929C24.1241 24.1388 23.3266 23.8325 22.5 23.8333H21.1667C20.9899 23.8333 20.8203 23.7631 20.6953 23.6381C20.5702 23.513 20.5 23.3435 20.5 23.1667C20.5 22.9899 20.5702 22.8203 20.6953 22.6953C20.8203 22.5702 20.9899 22.5 21.1667 22.5ZM36.5 24.5H32.5V12.5C32.5009 12.265 32.4398 12.034 32.3227 11.8303C32.2056 11.6266 32.0368 11.4575 31.8333 11.34C31.6306 11.223 31.4007 11.1614 31.1667 11.1614C30.9326 11.1614 30.7027 11.223 30.5 11.34L26.5 13.6333L22.5 11.34C22.2973 11.223 22.0674 11.1614 21.8333 11.1614C21.5993 11.1614 21.3694 11.223 21.1667 11.34L17.1667 13.6333L13.1667 11.34C12.964 11.223 12.734 11.1614 12.5 11.1614C12.266 11.1614 12.036 11.223 11.8333 11.34C11.6299 11.4575 11.461 11.6266 11.344 11.8303C11.2269 12.034 11.1657 12.265 11.1667 12.5V33.8333C11.1667 34.8942 11.5881 35.9116 12.3382 36.6618C13.0884 37.4119 14.1058 37.8333 15.1667 37.8333H33.8333C34.8942 37.8333 35.9116 37.4119 36.6618 36.6618C37.4119 35.9116 37.8333 34.8942 37.8333 33.8333V25.8333C37.8333 25.4797 37.6929 25.1406 37.4428 24.8905C37.1928 24.6405 36.8536 24.5 36.5 24.5ZM15.1667 35.1667C14.813 35.1667 14.4739 35.0262 14.2239 34.7761C13.9738 34.5261 13.8333 34.187 13.8333 33.8333V14.8067L16.5 16.3267C16.7058 16.4341 16.9345 16.4903 17.1667 16.4903C17.3988 16.4903 17.6276 16.4341 17.8333 16.3267L21.8333 14.0333L25.8333 16.3267C26.0391 16.4341 26.2678 16.4903 26.5 16.4903C26.7322 16.4903 26.9609 16.4341 27.1667 16.3267L29.8333 14.8067V33.8333C29.8369 34.2882 29.9181 34.7391 30.0733 35.1667H15.1667ZM35.1667 33.8333C35.1667 34.187 35.0262 34.5261 34.7761 34.7761C34.5261 35.0262 34.187 35.1667 33.8333 35.1667C33.4797 35.1667 33.1406 35.0262 32.8905 34.7761C32.6405 34.5261 32.5 34.187 32.5 33.8333V27.1667H35.1667V33.8333Z" fill="white" fill-opacity="0.65"/>
</svg>
