<svg width="16" height="20" viewBox="0 0 16 20" fill="none" xmlns="http://www.w3.org/2000/svg">
<path d="M14 11.229V8.04901C13.9986 6.63213 13.4958 5.26148 12.5806 4.17979C11.6655 3.09809 10.3971 2.37516 9 2.13901V1.04901C9 0.783795 8.89464 0.529441 8.70711 0.341904C8.51957 0.154368 8.26522 0.0490112 8 0.0490112C7.73478 0.0490112 7.48043 0.154368 7.29289 0.341904C7.10536 0.529441 7 0.783795 7 1.04901V2.13901C5.60294 2.37516 4.33452 3.09809 3.41939 4.17979C2.50425 5.26148 2.00144 6.63213 2 8.04901V11.229C1.41645 11.4353 0.910998 11.8171 0.552938 12.3219C0.194879 12.8268 0.00173951 13.4301 0 14.049V16.049C0 16.3142 0.105357 16.5686 0.292893 16.7561C0.48043 16.9437 0.734784 17.049 1 17.049H4.14C4.37028 17.8964 4.873 18.6444 5.5706 19.1777C6.26819 19.7111 7.1219 20 8 20C8.8781 20 9.73181 19.7111 10.4294 19.1777C11.127 18.6444 11.6297 17.8964 11.86 17.049H15C15.2652 17.049 15.5196 16.9437 15.7071 16.7561C15.8946 16.5686 16 16.3142 16 16.049V14.049C15.9983 13.4301 15.8051 12.8268 15.4471 12.3219C15.089 11.8171 14.5835 11.4353 14 11.229ZM4 8.04901C4 6.98815 4.42143 5.97073 5.17157 5.22058C5.92172 4.47044 6.93913 4.04901 8 4.04901C9.06087 4.04901 10.0783 4.47044 10.8284 5.22058C11.5786 5.97073 12 6.98815 12 8.04901V11.049H4V8.04901ZM8 18.049C7.65097 18.0469 7.30857 17.9535 7.00683 17.7781C6.70509 17.6026 6.45451 17.3513 6.28 17.049H9.72C9.54549 17.3513 9.29491 17.6026 8.99317 17.7781C8.69143 17.9535 8.34903 18.0469 8 18.049ZM14 15.049H2V14.049C2 13.7838 2.10536 13.5294 2.29289 13.3419C2.48043 13.1544 2.73478 13.049 3 13.049H13C13.2652 13.049 13.5196 13.1544 13.7071 13.3419C13.8946 13.5294 14 13.7838 14 14.049V15.049Z" fill="#8B8B8B"/>
</svg>
