<svg width="734" height="295" viewBox="0 0 734 295" fill="none" xmlns="http://www.w3.org/2000/svg">
<path d="M8.67773 44H6.36914L2.64258 37.5195H2.58984C2.60547 37.7891 2.61914 38.0605 2.63086 38.334C2.64258 38.6074 2.6543 38.8809 2.66602 39.1543C2.67773 39.4238 2.68945 39.6953 2.70117 39.9688V44H1.07812V35.4336H3.36914L7.08984 41.8496H7.13086C7.12305 41.584 7.11328 41.3203 7.10156 41.0586C7.08984 40.7969 7.07812 40.5352 7.06641 40.2734C7.05859 40.0117 7.05078 39.75 7.04297 39.4883V35.4336H8.67773V44ZM16.2305 44H10.2422V42.7402L12.3926 40.5664C12.8262 40.1211 13.1738 39.75 13.4355 39.4531C13.7012 39.1523 13.8926 38.8789 14.0098 38.6328C14.1309 38.3867 14.1914 38.123 14.1914 37.8418C14.1914 37.502 14.0957 37.248 13.9043 37.0801C13.7168 36.9082 13.4648 36.8223 13.1484 36.8223C12.8164 36.8223 12.4941 36.8984 12.1816 37.0508C11.8691 37.2031 11.543 37.4199 11.2031 37.7012L10.2188 36.5352C10.4648 36.3242 10.7246 36.125 10.998 35.9375C11.2754 35.75 11.5957 35.5996 11.959 35.4863C12.3262 35.3691 12.7656 35.3105 13.2773 35.3105C13.8398 35.3105 14.3223 35.4121 14.7246 35.6152C15.1309 35.8184 15.4434 36.0957 15.6621 36.4473C15.8809 36.7949 15.9902 37.1895 15.9902 37.6309C15.9902 38.1035 15.8965 38.5352 15.709 38.9258C15.5215 39.3164 15.248 39.7031 14.8887 40.0859C14.5332 40.4688 14.1035 40.8926 13.5996 41.3574L12.498 42.3945V42.4766H16.2305V44ZM23.0508 39.7168C23.0508 40.4082 22.9961 41.0254 22.8867 41.5684C22.7812 42.1113 22.6094 42.5723 22.3711 42.9512C22.1367 43.3301 21.8281 43.6191 21.4453 43.8184C21.0625 44.0176 20.5977 44.1172 20.0508 44.1172C19.3633 44.1172 18.7988 43.9434 18.3574 43.5957C17.916 43.2441 17.5898 42.7402 17.3789 42.084C17.168 41.4238 17.0625 40.6348 17.0625 39.7168C17.0625 38.791 17.1582 38 17.3496 37.3438C17.5449 36.6836 17.8613 36.1777 18.2988 35.8262C18.7363 35.4746 19.3203 35.2988 20.0508 35.2988C20.7344 35.2988 21.2969 35.4746 21.7383 35.8262C22.1836 36.1738 22.5137 36.6777 22.7285 37.3379C22.9434 37.9941 23.0508 38.7871 23.0508 39.7168ZM18.8613 39.7168C18.8613 40.3691 18.8965 40.9141 18.9668 41.3516C19.041 41.7852 19.1641 42.1113 19.3359 42.3301C19.5078 42.5488 19.7461 42.6582 20.0508 42.6582C20.3516 42.6582 20.5879 42.5508 20.7598 42.3359C20.9355 42.1172 21.0605 41.791 21.1348 41.3574C21.209 40.9199 21.2461 40.373 21.2461 39.7168C21.2461 39.0645 21.209 38.5195 21.1348 38.082C21.0605 37.6445 20.9355 37.3164 20.7598 37.0977C20.5879 36.875 20.3516 36.7637 20.0508 36.7637C19.7461 36.7637 19.5078 36.875 19.3359 37.0977C19.1641 37.3164 19.041 37.6445 18.9668 38.082C18.8965 38.5195 18.8613 39.0645 18.8613 39.7168ZM32.127 37.3262C32.8691 37.3262 33.4297 37.5176 33.8086 37.9004C34.1914 38.2793 34.3828 38.8887 34.3828 39.7285V44H32.5898V40.1738C32.5898 39.7051 32.5098 39.3516 32.3496 39.1133C32.1895 38.875 31.9414 38.7559 31.6055 38.7559C31.1328 38.7559 30.7969 38.9258 30.5977 39.2656C30.3984 39.6016 30.2988 40.084 30.2988 40.7129V44H28.5117V40.1738C28.5117 39.8613 28.4766 39.5996 28.4062 39.3887C28.3359 39.1777 28.2285 39.0195 28.084 38.9141C27.9395 38.8086 27.7539 38.7559 27.5273 38.7559C27.1953 38.7559 26.9336 38.8398 26.7422 39.0078C26.5547 39.1719 26.4199 39.416 26.3379 39.7402C26.2598 40.0605 26.2207 40.4531 26.2207 40.918V44H24.4336V37.4492H25.7988L26.0391 38.2871H26.1387C26.2715 38.0605 26.4375 37.877 26.6367 37.7363C26.8398 37.5957 27.0625 37.4922 27.3047 37.4258C27.5469 37.3594 27.793 37.3262 28.043 37.3262C28.5234 37.3262 28.9297 37.4043 29.2617 37.5605C29.5977 37.7168 29.8555 37.959 30.0352 38.2871H30.1934C30.3887 37.9512 30.6641 37.707 31.0195 37.5547C31.3789 37.4023 31.748 37.3262 32.127 37.3262Z" fill="#878787"/>
<path d="M8.67773 92H6.36914L2.64258 85.5195H2.58984C2.60547 85.7891 2.61914 86.0605 2.63086 86.334C2.64258 86.6074 2.6543 86.8809 2.66602 87.1543C2.67773 87.4238 2.68945 87.6953 2.70117 87.9688V92H1.07812V83.4336H3.36914L7.08984 89.8496H7.13086C7.12305 89.584 7.11328 89.3203 7.10156 89.0586C7.08984 88.7969 7.07812 88.5352 7.06641 88.2734C7.05859 88.0117 7.05078 87.75 7.04297 87.4883V83.4336H8.67773V92ZM14.7188 92H12.9082V87.043C12.9082 86.9062 12.9102 86.7383 12.9141 86.5391C12.918 86.3359 12.9238 86.1289 12.9316 85.918C12.9395 85.7031 12.9473 85.5098 12.9551 85.3379C12.9121 85.3887 12.8242 85.4766 12.6914 85.6016C12.5625 85.7227 12.4414 85.832 12.3281 85.9297L11.3438 86.7207L10.4707 85.6309L13.2305 83.4336H14.7188V92ZM23.0508 87.7168C23.0508 88.4082 22.9961 89.0254 22.8867 89.5684C22.7812 90.1113 22.6094 90.5723 22.3711 90.9512C22.1367 91.3301 21.8281 91.6191 21.4453 91.8184C21.0625 92.0176 20.5977 92.1172 20.0508 92.1172C19.3633 92.1172 18.7988 91.9434 18.3574 91.5957C17.916 91.2441 17.5898 90.7402 17.3789 90.084C17.168 89.4238 17.0625 88.6348 17.0625 87.7168C17.0625 86.791 17.1582 86 17.3496 85.3438C17.5449 84.6836 17.8613 84.1777 18.2988 83.8262C18.7363 83.4746 19.3203 83.2988 20.0508 83.2988C20.7344 83.2988 21.2969 83.4746 21.7383 83.8262C22.1836 84.1738 22.5137 84.6777 22.7285 85.3379C22.9434 85.9941 23.0508 86.7871 23.0508 87.7168ZM18.8613 87.7168C18.8613 88.3691 18.8965 88.9141 18.9668 89.3516C19.041 89.7852 19.1641 90.1113 19.3359 90.3301C19.5078 90.5488 19.7461 90.6582 20.0508 90.6582C20.3516 90.6582 20.5879 90.5508 20.7598 90.3359C20.9355 90.1172 21.0605 89.791 21.1348 89.3574C21.209 88.9199 21.2461 88.373 21.2461 87.7168C21.2461 87.0645 21.209 86.5195 21.1348 86.082C21.0605 85.6445 20.9355 85.3164 20.7598 85.0977C20.5879 84.875 20.3516 84.7637 20.0508 84.7637C19.7461 84.7637 19.5078 84.875 19.3359 85.0977C19.1641 85.3164 19.041 85.6445 18.9668 86.082C18.8965 86.5195 18.8613 87.0645 18.8613 87.7168ZM32.127 85.3262C32.8691 85.3262 33.4297 85.5176 33.8086 85.9004C34.1914 86.2793 34.3828 86.8887 34.3828 87.7285V92H32.5898V88.1738C32.5898 87.7051 32.5098 87.3516 32.3496 87.1133C32.1895 86.875 31.9414 86.7559 31.6055 86.7559C31.1328 86.7559 30.7969 86.9258 30.5977 87.2656C30.3984 87.6016 30.2988 88.084 30.2988 88.7129V92H28.5117V88.1738C28.5117 87.8613 28.4766 87.5996 28.4062 87.3887C28.3359 87.1777 28.2285 87.0195 28.084 86.9141C27.9395 86.8086 27.7539 86.7559 27.5273 86.7559C27.1953 86.7559 26.9336 86.8398 26.7422 87.0078C26.5547 87.1719 26.4199 87.416 26.3379 87.7402C26.2598 88.0605 26.2207 88.4531 26.2207 88.918V92H24.4336V85.4492H25.7988L26.0391 86.2871H26.1387C26.2715 86.0605 26.4375 85.877 26.6367 85.7363C26.8398 85.5957 27.0625 85.4922 27.3047 85.4258C27.5469 85.3594 27.793 85.3262 28.043 85.3262C28.5234 85.3262 28.9297 85.4043 29.2617 85.5605C29.5977 85.7168 29.8555 85.959 30.0352 86.2871H30.1934C30.3887 85.9512 30.6641 85.707 31.0195 85.5547C31.3789 85.4023 31.748 85.3262 32.127 85.3262Z" fill="#878787"/>
<path d="M8.67773 140H6.36914L2.64258 133.52H2.58984C2.60547 133.789 2.61914 134.061 2.63086 134.334C2.64258 134.607 2.6543 134.881 2.66602 135.154C2.67773 135.424 2.68945 135.695 2.70117 135.969V140H1.07812V131.434H3.36914L7.08984 137.85H7.13086C7.12305 137.584 7.11328 137.32 7.10156 137.059C7.08984 136.797 7.07812 136.535 7.06641 136.273C7.05859 136.012 7.05078 135.75 7.04297 135.488V131.434H8.67773V140ZM13.3594 134.527C13.8828 134.527 14.3477 134.627 14.7539 134.826C15.1641 135.025 15.4863 135.318 15.7207 135.705C15.9551 136.092 16.0723 136.568 16.0723 137.135C16.0723 137.752 15.9434 138.285 15.6855 138.734C15.4316 139.18 15.0508 139.521 14.543 139.76C14.0391 139.998 13.4102 140.117 12.6562 140.117C12.207 140.117 11.7832 140.078 11.3848 140C10.9902 139.926 10.6445 139.811 10.3477 139.654V138.09C10.6445 138.246 11 138.379 11.4141 138.488C11.832 138.594 12.2246 138.646 12.5918 138.646C12.9512 138.646 13.2539 138.6 13.5 138.506C13.7461 138.408 13.9316 138.26 14.0566 138.061C14.1855 137.857 14.25 137.6 14.25 137.287C14.25 136.869 14.1094 136.549 13.8281 136.326C13.5469 136.104 13.1152 135.992 12.5332 135.992C12.3105 135.992 12.0781 136.014 11.8359 136.057C11.5977 136.1 11.3984 136.143 11.2383 136.186L10.5176 135.799L10.8398 131.434H15.4863V132.969H12.4277L12.2695 134.65C12.4023 134.623 12.5469 134.596 12.7031 134.568C12.8594 134.541 13.0781 134.527 13.3594 134.527ZM25.2598 133.326C26.002 133.326 26.5625 133.518 26.9414 133.9C27.3242 134.279 27.5156 134.889 27.5156 135.729V140H25.7227V136.174C25.7227 135.705 25.6426 135.352 25.4824 135.113C25.3223 134.875 25.0742 134.756 24.7383 134.756C24.2656 134.756 23.9297 134.926 23.7305 135.266C23.5312 135.602 23.4316 136.084 23.4316 136.713V140H21.6445V136.174C21.6445 135.861 21.6094 135.6 21.5391 135.389C21.4688 135.178 21.3613 135.02 21.2168 134.914C21.0723 134.809 20.8867 134.756 20.6602 134.756C20.3281 134.756 20.0664 134.84 19.875 135.008C19.6875 135.172 19.5527 135.416 19.4707 135.74C19.3926 136.061 19.3535 136.453 19.3535 136.918V140H17.5664V133.449H18.9316L19.1719 134.287H19.2715C19.4043 134.061 19.5703 133.877 19.7695 133.736C19.9727 133.596 20.1953 133.492 20.4375 133.426C20.6797 133.359 20.9258 133.326 21.1758 133.326C21.6562 133.326 22.0625 133.404 22.3945 133.561C22.7305 133.717 22.9883 133.959 23.168 134.287H23.3262C23.5215 133.951 23.7969 133.707 24.1523 133.555C24.5117 133.402 24.8809 133.326 25.2598 133.326Z" fill="#878787"/>
<path d="M8.67773 188H6.36914L2.64258 181.52H2.58984C2.60547 181.789 2.61914 182.061 2.63086 182.334C2.64258 182.607 2.6543 182.881 2.66602 183.154C2.67773 183.424 2.68945 183.695 2.70117 183.969V188H1.07812V179.434H3.36914L7.08984 185.85H7.13086C7.12305 185.584 7.11328 185.32 7.10156 185.059C7.08984 184.797 7.07812 184.535 7.06641 184.273C7.05859 184.012 7.05078 183.75 7.04297 183.488V179.434H8.67773V188ZM16.2305 188H10.2422V186.74L12.3926 184.566C12.8262 184.121 13.1738 183.75 13.4355 183.453C13.7012 183.152 13.8926 182.879 14.0098 182.633C14.1309 182.387 14.1914 182.123 14.1914 181.842C14.1914 181.502 14.0957 181.248 13.9043 181.08C13.7168 180.908 13.4648 180.822 13.1484 180.822C12.8164 180.822 12.4941 180.898 12.1816 181.051C11.8691 181.203 11.543 181.42 11.2031 181.701L10.2188 180.535C10.4648 180.324 10.7246 180.125 10.998 179.938C11.2754 179.75 11.5957 179.6 11.959 179.486C12.3262 179.369 12.7656 179.311 13.2773 179.311C13.8398 179.311 14.3223 179.412 14.7246 179.615C15.1309 179.818 15.4434 180.096 15.6621 180.447C15.8809 180.795 15.9902 181.189 15.9902 181.631C15.9902 182.104 15.8965 182.535 15.709 182.926C15.5215 183.316 15.248 183.703 14.8887 184.086C14.5332 184.469 14.1035 184.893 13.5996 185.357L12.498 186.395V186.477H16.2305V188ZM25.2598 181.326C26.002 181.326 26.5625 181.518 26.9414 181.9C27.3242 182.279 27.5156 182.889 27.5156 183.729V188H25.7227V184.174C25.7227 183.705 25.6426 183.352 25.4824 183.113C25.3223 182.875 25.0742 182.756 24.7383 182.756C24.2656 182.756 23.9297 182.926 23.7305 183.266C23.5312 183.602 23.4316 184.084 23.4316 184.713V188H21.6445V184.174C21.6445 183.861 21.6094 183.6 21.5391 183.389C21.4688 183.178 21.3613 183.02 21.2168 182.914C21.0723 182.809 20.8867 182.756 20.6602 182.756C20.3281 182.756 20.0664 182.84 19.875 183.008C19.6875 183.172 19.5527 183.416 19.4707 183.74C19.3926 184.061 19.3535 184.453 19.3535 184.918V188H17.5664V181.449H18.9316L19.1719 182.287H19.2715C19.4043 182.061 19.5703 181.877 19.7695 181.736C19.9727 181.596 20.1953 181.492 20.4375 181.426C20.6797 181.359 20.9258 181.326 21.1758 181.326C21.6562 181.326 22.0625 181.404 22.3945 181.561C22.7305 181.717 22.9883 181.959 23.168 182.287H23.3262C23.5215 181.951 23.7969 181.707 24.1523 181.555C24.5117 181.402 24.8809 181.326 25.2598 181.326Z" fill="#878787"/>
<path d="M8.67773 236H6.36914L2.64258 229.52H2.58984C2.60547 229.789 2.61914 230.061 2.63086 230.334C2.64258 230.607 2.6543 230.881 2.66602 231.154C2.67773 231.424 2.68945 231.695 2.70117 231.969V236H1.07812V227.434H3.36914L7.08984 233.85H7.13086C7.12305 233.584 7.11328 233.32 7.10156 233.059C7.08984 232.797 7.07812 232.535 7.06641 232.273C7.05859 232.012 7.05078 231.75 7.04297 231.488V227.434H8.67773V236ZM16.1836 231.717C16.1836 232.408 16.1289 233.025 16.0195 233.568C15.9141 234.111 15.7422 234.572 15.5039 234.951C15.2695 235.33 14.9609 235.619 14.5781 235.818C14.1953 236.018 13.7305 236.117 13.1836 236.117C12.4961 236.117 11.9316 235.943 11.4902 235.596C11.0488 235.244 10.7227 234.74 10.5117 234.084C10.3008 233.424 10.1953 232.635 10.1953 231.717C10.1953 230.791 10.291 230 10.4824 229.344C10.6777 228.684 10.9941 228.178 11.4316 227.826C11.8691 227.475 12.4531 227.299 13.1836 227.299C13.8672 227.299 14.4297 227.475 14.8711 227.826C15.3164 228.174 15.6465 228.678 15.8613 229.338C16.0762 229.994 16.1836 230.787 16.1836 231.717ZM11.9941 231.717C11.9941 232.369 12.0293 232.914 12.0996 233.352C12.1738 233.785 12.2969 234.111 12.4688 234.33C12.6406 234.549 12.8789 234.658 13.1836 234.658C13.4844 234.658 13.7207 234.551 13.8926 234.336C14.0684 234.117 14.1934 233.791 14.2676 233.357C14.3418 232.92 14.3789 232.373 14.3789 231.717C14.3789 231.064 14.3418 230.52 14.2676 230.082C14.1934 229.645 14.0684 229.316 13.8926 229.098C13.7207 228.875 13.4844 228.764 13.1836 228.764C12.8789 228.764 12.6406 228.875 12.4688 229.098C12.2969 229.316 12.1738 229.645 12.0996 230.082C12.0293 230.52 11.9941 231.064 11.9941 231.717Z" fill="#878787"/>
<line x1="48.5" y1="23.5" x2="48.5" y2="246.5" stroke="#878787"/>
<line x1="723" y1="247" x2="48" y2="247" stroke="#878787"/>
<line x1="723" y1="193" x2="48" y2="193" stroke="#CFCFCF"/>
<line x1="723" y1="146" x2="48" y2="146" stroke="#CFCFCF"/>
<line x1="723" y1="99" x2="48" y2="99" stroke="#CFCFCF"/>
<line x1="723" y1="52" x2="48" y2="52" stroke="#CFCFCF"/>
<path d="M48.5 217C66.6667 219.5 106.5 221.7 120.5 210.5C138 196.5 147.5 161 173.5 163.5C199.5 166 217 203 241.5 201.5C266 200 268 171.5 293.5 172.5C319 173.5 335 211.5 367 206.5C399 201.5 394.5 123.5 396 109.5C397.5 95.5 407 87 418 88.5C429 90 437 91.5 441 100.5C445 109.5 450.5 114 461 113C471.5 112 479 120.5 484 129C489 137.5 496 145.5 507.5 145.5C519 145.5 537.5 146 546 172.5C552.8 193.7 554.5 197 554.5 196" stroke="url(#paint0_linear_8_18739)" stroke-width="3"/>
<path fill-rule="evenodd" clip-rule="evenodd" d="M397 41.5C394.791 41.5 393 43.2909 393 45.5V63.5C393 65.7091 394.791 67.5 397 67.5H415.881L420.5 75.5L425.119 67.5H443C445.209 67.5 447 65.7091 447 63.5V45.5C447 43.2909 445.209 41.5 443 41.5H397Z" fill="#404040"/>
<path d="M405.678 59.5H403.369L399.643 53.0195H399.59C399.664 54.1641 399.701 54.9805 399.701 55.4688V59.5H398.078V50.9336H400.369L404.09 57.3496H404.131C404.072 56.2363 404.043 55.4492 404.043 54.9883V50.9336H405.678V59.5ZM411.719 59.5H409.908V54.543L409.926 53.7285L409.955 52.8379C409.654 53.1387 409.445 53.3359 409.328 53.4297L408.344 54.2207L407.471 53.1309L410.23 50.9336H411.719V59.5ZM414.303 58.6621C414.303 58.334 414.391 58.0859 414.566 57.918C414.742 57.75 414.998 57.666 415.334 57.666C415.658 57.666 415.908 57.752 416.084 57.9238C416.264 58.0957 416.354 58.3418 416.354 58.6621C416.354 58.9707 416.264 59.2148 416.084 59.3945C415.904 59.5703 415.654 59.6582 415.334 59.6582C415.006 59.6582 414.752 59.5723 414.572 59.4004C414.393 59.2246 414.303 58.9785 414.303 58.6621ZM420.637 54.0273C421.465 54.0273 422.123 54.2598 422.611 54.7246C423.104 55.1895 423.35 55.8262 423.35 56.6348C423.35 57.5918 423.055 58.3281 422.465 58.8438C421.875 59.3594 421.031 59.6172 419.934 59.6172C418.98 59.6172 418.211 59.4629 417.625 59.1543V57.5898C417.934 57.7539 418.293 57.8887 418.703 57.9941C419.113 58.0957 419.502 58.1465 419.869 58.1465C420.975 58.1465 421.527 57.6934 421.527 56.7871C421.527 55.9238 420.955 55.4922 419.811 55.4922C419.604 55.4922 419.375 55.5137 419.125 55.5566C418.875 55.5957 418.672 55.6387 418.516 55.6855L417.795 55.2988L418.117 50.9336H422.764V52.4688H419.705L419.547 54.1504L419.752 54.1094C419.99 54.0547 420.285 54.0273 420.637 54.0273ZM425.225 59.5L428.441 52.4688H424.217V50.9453H430.363V52.082L427.123 59.5H425.225ZM437.553 59.5H435.766V55.6738C435.766 55.2012 435.686 54.8477 435.525 54.6133C435.369 54.375 435.121 54.2559 434.781 54.2559C434.324 54.2559 433.992 54.4238 433.785 54.7598C433.578 55.0957 433.475 55.6484 433.475 56.418V59.5H431.688V52.9492H433.053L433.293 53.7871H433.393C433.568 53.4863 433.822 53.252 434.154 53.084C434.486 52.9121 434.867 52.8262 435.297 52.8262C436.277 52.8262 436.941 53.1465 437.289 53.7871H437.447C437.623 53.4824 437.881 53.2461 438.221 53.0781C438.564 52.9102 438.951 52.8262 439.381 52.8262C440.123 52.8262 440.684 53.0176 441.062 53.4004C441.445 53.7793 441.637 54.3887 441.637 55.2285V59.5H439.844V55.6738C439.844 55.2012 439.764 54.8477 439.604 54.6133C439.447 54.375 439.199 54.2559 438.859 54.2559C438.422 54.2559 438.094 54.4121 437.875 54.7246C437.66 55.0371 437.553 55.5332 437.553 56.2129V59.5Z" fill="white"/>
<circle cx="420" cy="80.5" r="4" fill="#08B64E"/>
<path d="M49 216.977C66.7287 219.479 91.5 213.5 119.264 210.47C141.226 208.074 141.627 174.498 167 177C192.373 179.503 213.438 202.963 237.347 201.461C261.257 199.96 278.682 196.083 288.094 172.432C297.852 147.907 292.973 156.416 294.437 133.393C296.494 101.041 323.088 102.879 331.521 115.375C335.912 121.882 335.912 134.895 346.647 136.396C357.382 137.898 432.526 150.41 436.429 159.419C440.333 168.428 442.772 168.929 453.019 167.928C463.266 166.927 457.899 167.928 470.585 167.928C480.209 167.928 478.88 172.432 490.103 172.432C501.326 172.432 526.211 145.906 534.506 172.432C541.142 193.653 555 191.451 555 190.45" stroke="url(#paint1_linear_8_18739)" stroke-width="3"/>
<path fill-rule="evenodd" clip-rule="evenodd" d="M298 58C295.791 58 294 59.7909 294 62V80C294 82.2091 295.791 84 298 84H316.881L321.5 92L326.119 84H344C346.209 84 348 82.2091 348 80V62C348 59.7909 346.209 58 344 58H298Z" fill="#8B8B8B"/>
<path d="M306.678 76H304.369L300.643 69.5195H300.59C300.664 70.6641 300.701 71.4805 300.701 71.9688V76H299.078V67.4336H301.369L305.09 73.8496H305.131C305.072 72.7363 305.043 71.9492 305.043 71.4883V67.4336H306.678V76ZM312.719 76H310.908V71.043L310.926 70.2285L310.955 69.3379C310.654 69.6387 310.445 69.8359 310.328 69.9297L309.344 70.7207L308.471 69.6309L311.23 67.4336H312.719V76ZM315.303 75.1621C315.303 74.834 315.391 74.5859 315.566 74.418C315.742 74.25 315.998 74.166 316.334 74.166C316.658 74.166 316.908 74.252 317.084 74.4238C317.264 74.5957 317.354 74.8418 317.354 75.1621C317.354 75.4707 317.264 75.7148 317.084 75.8945C316.904 76.0703 316.654 76.1582 316.334 76.1582C316.006 76.1582 315.752 76.0723 315.572 75.9004C315.393 75.7246 315.303 75.4785 315.303 75.1621ZM321.637 70.5273C322.465 70.5273 323.123 70.7598 323.611 71.2246C324.104 71.6895 324.35 72.3262 324.35 73.1348C324.35 74.0918 324.055 74.8281 323.465 75.3438C322.875 75.8594 322.031 76.1172 320.934 76.1172C319.98 76.1172 319.211 75.9629 318.625 75.6543V74.0898C318.934 74.2539 319.293 74.3887 319.703 74.4941C320.113 74.5957 320.502 74.6465 320.869 74.6465C321.975 74.6465 322.527 74.1934 322.527 73.2871C322.527 72.4238 321.955 71.9922 320.811 71.9922C320.604 71.9922 320.375 72.0137 320.125 72.0566C319.875 72.0957 319.672 72.1387 319.516 72.1855L318.795 71.7988L319.117 67.4336H323.764V68.9688H320.705L320.547 70.6504L320.752 70.6094C320.99 70.5547 321.285 70.5273 321.637 70.5273ZM326.225 76L329.441 68.9688H325.217V67.4453H331.363V68.582L328.123 76H326.225ZM338.553 76H336.766V72.1738C336.766 71.7012 336.686 71.3477 336.525 71.1133C336.369 70.875 336.121 70.7559 335.781 70.7559C335.324 70.7559 334.992 70.9238 334.785 71.2598C334.578 71.5957 334.475 72.1484 334.475 72.918V76H332.688V69.4492H334.053L334.293 70.2871H334.393C334.568 69.9863 334.822 69.752 335.154 69.584C335.486 69.4121 335.867 69.3262 336.297 69.3262C337.277 69.3262 337.941 69.6465 338.289 70.2871H338.447C338.623 69.9824 338.881 69.7461 339.221 69.5781C339.564 69.4102 339.951 69.3262 340.381 69.3262C341.123 69.3262 341.684 69.5176 342.062 69.9004C342.445 70.2793 342.637 70.8887 342.637 71.7285V76H340.844V72.1738C340.844 71.7012 340.764 71.3477 340.604 71.1133C340.447 70.875 340.199 70.7559 339.859 70.7559C339.422 70.7559 339.094 70.9121 338.875 71.2246C338.66 71.5371 338.553 72.0332 338.553 72.7129V76Z" fill="white"/>
<circle cx="321" cy="97" r="4" fill="#E4572E"/>
<path d="M48.1816 271.02C47.7715 271.02 47.4141 270.977 47.1094 270.891V269.379C47.4219 269.457 47.707 269.496 47.9648 269.496C48.3633 269.496 48.6484 269.371 48.8203 269.121C48.9922 268.875 49.0781 268.488 49.0781 267.961V259.934H50.8945V267.949C50.8945 268.949 50.666 269.711 50.209 270.234C49.752 270.758 49.0762 271.02 48.1816 271.02ZM57.0703 268.5L56.7246 267.609H56.6777C56.377 267.988 56.0664 268.252 55.7461 268.4C55.4297 268.545 55.0156 268.617 54.5039 268.617C53.875 268.617 53.3789 268.438 53.0156 268.078C52.6562 267.719 52.4766 267.207 52.4766 266.543C52.4766 265.848 52.7188 265.336 53.2031 265.008C53.6914 264.676 54.4258 264.492 55.4062 264.457L56.543 264.422V264.135C56.543 263.471 56.2031 263.139 55.5234 263.139C55 263.139 54.3848 263.297 53.6777 263.613L53.0859 262.406C53.8398 262.012 54.6758 261.814 55.5938 261.814C56.4727 261.814 57.1465 262.006 57.6152 262.389C58.084 262.771 58.3184 263.354 58.3184 264.135V268.5H57.0703ZM56.543 265.465L55.8516 265.488C55.332 265.504 54.9453 265.598 54.6914 265.77C54.4375 265.941 54.3105 266.203 54.3105 266.555C54.3105 267.059 54.5996 267.311 55.1777 267.311C55.5918 267.311 55.9219 267.191 56.168 266.953C56.418 266.715 56.543 266.398 56.543 266.004V265.465ZM66.2109 268.5H64.4238V264.674C64.4238 264.201 64.3398 263.848 64.1719 263.613C64.0039 263.375 63.7363 263.256 63.3691 263.256C62.8691 263.256 62.5078 263.424 62.2852 263.76C62.0625 264.092 61.9512 264.645 61.9512 265.418V268.5H60.1641V261.949H61.5293L61.7695 262.787H61.8691C62.0684 262.471 62.3418 262.232 62.6895 262.072C63.041 261.908 63.4395 261.826 63.8848 261.826C64.6465 261.826 65.2246 262.033 65.6191 262.447C66.0137 262.857 66.2109 263.451 66.2109 264.229V268.5Z" fill="#878787"/>
<path d="M104.865 268.5H103.078V259.934H107.988V261.422H104.865V263.631H107.771V265.113H104.865V268.5ZM112.236 263.098C111.857 263.098 111.561 263.219 111.346 263.461C111.131 263.699 111.008 264.039 110.977 264.48H113.484C113.477 264.039 113.361 263.699 113.139 263.461C112.916 263.219 112.615 263.098 112.236 263.098ZM112.488 268.617C111.434 268.617 110.609 268.326 110.016 267.744C109.422 267.162 109.125 266.338 109.125 265.271C109.125 264.174 109.398 263.326 109.945 262.729C110.496 262.127 111.256 261.826 112.225 261.826C113.15 261.826 113.871 262.09 114.387 262.617C114.902 263.145 115.16 263.873 115.16 264.803V265.67H110.936C110.955 266.178 111.105 266.574 111.387 266.859C111.668 267.145 112.062 267.287 112.57 267.287C112.965 267.287 113.338 267.246 113.689 267.164C114.041 267.082 114.408 266.951 114.791 266.771V268.154C114.479 268.311 114.145 268.426 113.789 268.5C113.434 268.578 113 268.617 112.488 268.617ZM120.258 261.826C121.031 261.826 121.637 262.129 122.074 262.734C122.512 263.336 122.73 264.162 122.73 265.213C122.73 266.295 122.504 267.133 122.051 267.727C121.602 268.32 120.988 268.617 120.211 268.617C119.441 268.617 118.838 268.338 118.4 267.779H118.277L117.979 268.5H116.613V259.383H118.4V261.504C118.4 261.773 118.377 262.205 118.33 262.799H118.4C118.818 262.15 119.438 261.826 120.258 261.826ZM119.684 263.256C119.242 263.256 118.92 263.393 118.717 263.666C118.514 263.936 118.408 264.383 118.4 265.008V265.201C118.4 265.904 118.504 266.408 118.711 266.713C118.922 267.018 119.254 267.17 119.707 267.17C120.074 267.17 120.365 267.002 120.58 266.666C120.799 266.326 120.908 265.834 120.908 265.189C120.908 264.545 120.799 264.062 120.58 263.742C120.361 263.418 120.062 263.256 119.684 263.256Z" fill="#878787"/>
<path d="M162.705 268.5L160.643 261.779H160.59C160.664 263.146 160.701 264.059 160.701 264.516V268.5H159.078V259.934H161.551L163.578 266.484H163.613L165.764 259.934H168.236V268.5H166.543V264.445C166.543 264.254 166.545 264.033 166.549 263.783C166.557 263.533 166.584 262.869 166.631 261.791H166.578L164.369 268.5H162.705ZM174.418 268.5L174.072 267.609H174.025C173.725 267.988 173.414 268.252 173.094 268.4C172.777 268.545 172.363 268.617 171.852 268.617C171.223 268.617 170.727 268.438 170.363 268.078C170.004 267.719 169.824 267.207 169.824 266.543C169.824 265.848 170.066 265.336 170.551 265.008C171.039 264.676 171.773 264.492 172.754 264.457L173.891 264.422V264.135C173.891 263.471 173.551 263.139 172.871 263.139C172.348 263.139 171.732 263.297 171.025 263.613L170.434 262.406C171.188 262.012 172.023 261.814 172.941 261.814C173.82 261.814 174.494 262.006 174.963 262.389C175.432 262.771 175.666 263.354 175.666 264.135V268.5H174.418ZM173.891 265.465L173.199 265.488C172.68 265.504 172.293 265.598 172.039 265.77C171.785 265.941 171.658 266.203 171.658 266.555C171.658 267.059 171.947 267.311 172.525 267.311C172.939 267.311 173.27 267.191 173.516 266.953C173.766 266.715 173.891 266.398 173.891 266.004V265.465ZM181.168 261.826C181.41 261.826 181.611 261.844 181.771 261.879L181.637 263.555C181.492 263.516 181.316 263.496 181.109 263.496C180.539 263.496 180.094 263.643 179.773 263.936C179.457 264.229 179.299 264.639 179.299 265.166V268.5H177.512V261.949H178.865L179.129 263.051H179.217C179.42 262.684 179.693 262.389 180.037 262.166C180.385 261.939 180.762 261.826 181.168 261.826Z" fill="#878787"/>
<path d="M223.322 268.5L222.701 266.461H219.578L218.957 268.5H217L220.023 259.898H222.244L225.279 268.5H223.322ZM222.268 264.938C221.693 263.09 221.369 262.045 221.295 261.803C221.225 261.561 221.174 261.369 221.143 261.229C221.014 261.729 220.645 262.965 220.035 264.938H222.268ZM229.82 268.617C229.051 268.617 228.447 268.338 228.01 267.779H227.916C227.979 268.326 228.01 268.643 228.01 268.729V271.383H226.223V261.949H227.676L227.928 262.799H228.01C228.428 262.15 229.047 261.826 229.867 261.826C230.641 261.826 231.246 262.125 231.684 262.723C232.121 263.32 232.34 264.15 232.34 265.213C232.34 265.912 232.236 266.52 232.029 267.035C231.826 267.551 231.535 267.943 231.156 268.213C230.777 268.482 230.332 268.617 229.82 268.617ZM229.293 263.256C228.852 263.256 228.529 263.393 228.326 263.666C228.123 263.936 228.018 264.383 228.01 265.008V265.201C228.01 265.904 228.113 266.408 228.32 266.713C228.531 267.018 228.863 267.17 229.316 267.17C230.117 267.17 230.518 266.51 230.518 265.189C230.518 264.545 230.418 264.062 230.219 263.742C230.023 263.418 229.715 263.256 229.293 263.256ZM237.473 261.826C237.715 261.826 237.916 261.844 238.076 261.879L237.941 263.555C237.797 263.516 237.621 263.496 237.414 263.496C236.844 263.496 236.398 263.643 236.078 263.936C235.762 264.229 235.604 264.639 235.604 265.166V268.5H233.816V261.949H235.17L235.434 263.051H235.521C235.725 262.684 235.998 262.389 236.342 262.166C236.689 261.939 237.066 261.826 237.473 261.826Z" fill="#878787"/>
<path d="M277.705 268.5L275.643 261.779H275.59C275.664 263.146 275.701 264.059 275.701 264.516V268.5H274.078V259.934H276.551L278.578 266.484H278.613L280.764 259.934H283.236V268.5H281.543V264.445C281.543 264.254 281.545 264.033 281.549 263.783C281.557 263.533 281.584 262.869 281.631 261.791H281.578L279.369 268.5H277.705ZM289.418 268.5L289.072 267.609H289.025C288.725 267.988 288.414 268.252 288.094 268.4C287.777 268.545 287.363 268.617 286.852 268.617C286.223 268.617 285.727 268.438 285.363 268.078C285.004 267.719 284.824 267.207 284.824 266.543C284.824 265.848 285.066 265.336 285.551 265.008C286.039 264.676 286.773 264.492 287.754 264.457L288.891 264.422V264.135C288.891 263.471 288.551 263.139 287.871 263.139C287.348 263.139 286.732 263.297 286.025 263.613L285.434 262.406C286.188 262.012 287.023 261.814 287.941 261.814C288.82 261.814 289.494 262.006 289.963 262.389C290.432 262.771 290.666 263.354 290.666 264.135V268.5H289.418ZM288.891 265.465L288.199 265.488C287.68 265.504 287.293 265.598 287.039 265.77C286.785 265.941 286.658 266.203 286.658 266.555C286.658 267.059 286.947 267.311 287.525 267.311C287.939 267.311 288.27 267.191 288.516 266.953C288.766 266.715 288.891 266.398 288.891 266.004V265.465ZM291.574 261.949H293.531L294.768 265.635C294.873 265.955 294.945 266.334 294.984 266.771H295.02C295.062 266.369 295.146 265.99 295.271 265.635L296.484 261.949H298.4L295.629 269.338C295.375 270.021 295.012 270.533 294.539 270.873C294.07 271.213 293.521 271.383 292.893 271.383C292.584 271.383 292.281 271.35 291.984 271.283V269.865C292.199 269.916 292.434 269.941 292.688 269.941C293.004 269.941 293.279 269.844 293.514 269.648C293.752 269.457 293.938 269.166 294.07 268.775L294.176 268.453L291.574 261.949Z" fill="#878787"/>
<path d="M333.182 271.02C332.771 271.02 332.414 270.977 332.109 270.891V269.379C332.422 269.457 332.707 269.496 332.965 269.496C333.363 269.496 333.648 269.371 333.82 269.121C333.992 268.875 334.078 268.488 334.078 267.961V259.934H335.895V267.949C335.895 268.949 335.666 269.711 335.209 270.234C334.752 270.758 334.076 271.02 333.182 271.02ZM342.551 268.5L342.311 267.662H342.217C342.025 267.967 341.754 268.203 341.402 268.371C341.051 268.535 340.65 268.617 340.201 268.617C339.432 268.617 338.852 268.412 338.461 268.002C338.07 267.588 337.875 266.994 337.875 266.221V261.949H339.662V265.775C339.662 266.248 339.746 266.604 339.914 266.842C340.082 267.076 340.35 267.193 340.717 267.193C341.217 267.193 341.578 267.027 341.801 266.695C342.023 266.359 342.135 265.805 342.135 265.031V261.949H343.922V268.5H342.551ZM351.844 268.5H350.057V264.674C350.057 264.201 349.973 263.848 349.805 263.613C349.637 263.375 349.369 263.256 349.002 263.256C348.502 263.256 348.141 263.424 347.918 263.76C347.695 264.092 347.584 264.645 347.584 265.418V268.5H345.797V261.949H347.162L347.402 262.787H347.502C347.701 262.471 347.975 262.232 348.322 262.072C348.674 261.908 349.072 261.826 349.518 261.826C350.279 261.826 350.857 262.033 351.252 262.447C351.646 262.857 351.844 263.451 351.844 264.229V268.5Z" fill="#878787"/>
<path d="M387.182 271.02C386.771 271.02 386.414 270.977 386.109 270.891V269.379C386.422 269.457 386.707 269.496 386.965 269.496C387.363 269.496 387.648 269.371 387.82 269.121C387.992 268.875 388.078 268.488 388.078 267.961V259.934H389.895V267.949C389.895 268.949 389.666 269.711 389.209 270.234C388.752 270.758 388.076 271.02 387.182 271.02ZM396.551 268.5L396.311 267.662H396.217C396.025 267.967 395.754 268.203 395.402 268.371C395.051 268.535 394.65 268.617 394.201 268.617C393.432 268.617 392.852 268.412 392.461 268.002C392.07 267.588 391.875 266.994 391.875 266.221V261.949H393.662V265.775C393.662 266.248 393.746 266.604 393.914 266.842C394.082 267.076 394.35 267.193 394.717 267.193C395.217 267.193 395.578 267.027 395.801 266.695C396.023 266.359 396.135 265.805 396.135 265.031V261.949H397.922V268.5H396.551ZM401.584 268.5H399.797V259.383H401.584V268.5Z" fill="#878787"/>
<path d="M443.322 268.5L442.701 266.461H439.578L438.957 268.5H437L440.023 259.898H442.244L445.279 268.5H443.322ZM442.268 264.938C441.693 263.09 441.369 262.045 441.295 261.803C441.225 261.561 441.174 261.369 441.143 261.229C441.014 261.729 440.645 262.965 440.035 264.938H442.268ZM450.863 268.5L450.623 267.662H450.529C450.338 267.967 450.066 268.203 449.715 268.371C449.363 268.535 448.963 268.617 448.514 268.617C447.744 268.617 447.164 268.412 446.773 268.002C446.383 267.588 446.188 266.994 446.188 266.221V261.949H447.975V265.775C447.975 266.248 448.059 266.604 448.227 266.842C448.395 267.076 448.662 267.193 449.029 267.193C449.529 267.193 449.891 267.027 450.113 266.695C450.336 266.359 450.447 265.805 450.447 265.031V261.949H452.234V268.5H450.863ZM459.811 261.949V262.857L458.785 263.121C458.973 263.414 459.066 263.742 459.066 264.105C459.066 264.809 458.82 265.357 458.328 265.752C457.84 266.143 457.16 266.338 456.289 266.338L455.967 266.32L455.703 266.291C455.52 266.432 455.428 266.588 455.428 266.76C455.428 267.018 455.756 267.146 456.412 267.146H457.525C458.244 267.146 458.791 267.301 459.166 267.609C459.545 267.918 459.734 268.371 459.734 268.969C459.734 269.734 459.414 270.328 458.773 270.75C458.137 271.172 457.221 271.383 456.025 271.383C455.111 271.383 454.412 271.223 453.928 270.902C453.447 270.586 453.207 270.141 453.207 269.566C453.207 269.172 453.33 268.842 453.576 268.576C453.822 268.311 454.184 268.121 454.66 268.008C454.477 267.93 454.316 267.803 454.18 267.627C454.043 267.447 453.975 267.258 453.975 267.059C453.975 266.809 454.047 266.602 454.191 266.438C454.336 266.27 454.545 266.105 454.818 265.945C454.475 265.797 454.201 265.559 453.998 265.23C453.799 264.902 453.699 264.516 453.699 264.07C453.699 263.355 453.932 262.803 454.396 262.412C454.861 262.021 455.525 261.826 456.389 261.826C456.572 261.826 456.789 261.844 457.039 261.879C457.293 261.91 457.455 261.934 457.525 261.949H459.811ZM454.754 269.426C454.754 269.672 454.871 269.865 455.105 270.006C455.344 270.146 455.676 270.217 456.102 270.217C456.742 270.217 457.244 270.129 457.607 269.953C457.971 269.777 458.152 269.537 458.152 269.232C458.152 268.986 458.045 268.816 457.83 268.723C457.615 268.629 457.283 268.582 456.834 268.582H455.908C455.58 268.582 455.305 268.658 455.082 268.811C454.863 268.967 454.754 269.172 454.754 269.426ZM455.404 264.094C455.404 264.449 455.484 264.73 455.645 264.938C455.809 265.145 456.057 265.248 456.389 265.248C456.725 265.248 456.971 265.145 457.127 264.938C457.283 264.73 457.361 264.449 457.361 264.094C457.361 263.305 457.037 262.91 456.389 262.91C455.732 262.91 455.404 263.305 455.404 264.094Z" fill="#878787"/>
<path d="M500.135 266.121C500.135 266.895 499.855 267.504 499.297 267.949C498.742 268.395 497.969 268.617 496.977 268.617C496.062 268.617 495.254 268.445 494.551 268.102V266.414C495.129 266.672 495.617 266.854 496.016 266.959C496.418 267.064 496.785 267.117 497.117 267.117C497.516 267.117 497.82 267.041 498.031 266.889C498.246 266.736 498.354 266.51 498.354 266.209C498.354 266.041 498.307 265.893 498.213 265.764C498.119 265.631 497.98 265.504 497.797 265.383C497.617 265.262 497.248 265.068 496.689 264.803C496.166 264.557 495.773 264.32 495.512 264.094C495.25 263.867 495.041 263.604 494.885 263.303C494.729 263.002 494.65 262.65 494.65 262.248C494.65 261.49 494.906 260.895 495.418 260.461C495.934 260.027 496.645 259.811 497.551 259.811C497.996 259.811 498.42 259.863 498.822 259.969C499.229 260.074 499.652 260.223 500.094 260.414L499.508 261.826C499.051 261.639 498.672 261.508 498.371 261.434C498.074 261.359 497.781 261.322 497.492 261.322C497.148 261.322 496.885 261.402 496.701 261.562C496.518 261.723 496.426 261.932 496.426 262.189C496.426 262.35 496.463 262.49 496.537 262.611C496.611 262.729 496.729 262.844 496.889 262.957C497.053 263.066 497.438 263.266 498.043 263.555C498.844 263.938 499.393 264.322 499.689 264.709C499.986 265.092 500.135 265.562 500.135 266.121ZM504.26 263.098C503.881 263.098 503.584 263.219 503.369 263.461C503.154 263.699 503.031 264.039 503 264.48H505.508C505.5 264.039 505.385 263.699 505.162 263.461C504.939 263.219 504.639 263.098 504.26 263.098ZM504.512 268.617C503.457 268.617 502.633 268.326 502.039 267.744C501.445 267.162 501.148 266.338 501.148 265.271C501.148 264.174 501.422 263.326 501.969 262.729C502.52 262.127 503.279 261.826 504.248 261.826C505.174 261.826 505.895 262.09 506.41 262.617C506.926 263.145 507.184 263.873 507.184 264.803V265.67H502.959C502.979 266.178 503.129 266.574 503.41 266.859C503.691 267.145 504.086 267.287 504.594 267.287C504.988 267.287 505.361 267.246 505.713 267.164C506.064 267.082 506.432 266.951 506.814 266.771V268.154C506.502 268.311 506.168 268.426 505.812 268.5C505.457 268.578 505.023 268.617 504.512 268.617ZM512.234 268.617C511.465 268.617 510.861 268.338 510.424 267.779H510.33C510.393 268.326 510.424 268.643 510.424 268.729V271.383H508.637V261.949H510.09L510.342 262.799H510.424C510.842 262.15 511.461 261.826 512.281 261.826C513.055 261.826 513.66 262.125 514.098 262.723C514.535 263.32 514.754 264.15 514.754 265.213C514.754 265.912 514.65 266.52 514.443 267.035C514.24 267.551 513.949 267.943 513.57 268.213C513.191 268.482 512.746 268.617 512.234 268.617ZM511.707 263.256C511.266 263.256 510.943 263.393 510.74 263.666C510.537 263.936 510.432 264.383 510.424 265.008V265.201C510.424 265.904 510.527 266.408 510.734 266.713C510.945 267.018 511.277 267.17 511.73 267.17C512.531 267.17 512.932 266.51 512.932 265.189C512.932 264.545 512.832 264.062 512.633 263.742C512.438 263.418 512.129 263.256 511.707 263.256ZM518.99 267.193C519.303 267.193 519.678 267.125 520.115 266.988V268.318C519.67 268.518 519.123 268.617 518.475 268.617C517.76 268.617 517.238 268.438 516.91 268.078C516.586 267.715 516.424 267.172 516.424 266.449V263.291H515.568V262.535L516.553 261.938L517.068 260.555H518.211V261.949H520.045V263.291H518.211V266.449C518.211 266.703 518.281 266.891 518.422 267.012C518.566 267.133 518.756 267.193 518.99 267.193Z" fill="#878787"/>
<path d="M563.854 264.205C563.854 265.623 563.502 266.713 562.799 267.475C562.096 268.236 561.088 268.617 559.775 268.617C558.463 268.617 557.455 268.236 556.752 267.475C556.049 266.713 555.697 265.619 555.697 264.193C555.697 262.768 556.049 261.68 556.752 260.93C557.459 260.176 558.471 259.799 559.787 259.799C561.104 259.799 562.109 260.178 562.805 260.936C563.504 261.693 563.854 262.783 563.854 264.205ZM557.602 264.205C557.602 265.162 557.783 265.883 558.146 266.367C558.51 266.852 559.053 267.094 559.775 267.094C561.225 267.094 561.949 266.131 561.949 264.205C561.949 262.275 561.229 261.311 559.787 261.311C559.064 261.311 558.52 261.555 558.152 262.043C557.785 262.527 557.602 263.248 557.602 264.205ZM568.148 268.617C566.109 268.617 565.09 267.498 565.09 265.26C565.09 264.146 565.367 263.297 565.922 262.711C566.477 262.121 567.271 261.826 568.307 261.826C569.064 261.826 569.744 261.975 570.346 262.271L569.818 263.654C569.537 263.541 569.275 263.449 569.033 263.379C568.791 263.305 568.549 263.268 568.307 263.268C567.377 263.268 566.912 263.928 566.912 265.248C566.912 266.529 567.377 267.17 568.307 267.17C568.65 267.17 568.969 267.125 569.262 267.035C569.555 266.941 569.848 266.797 570.141 266.602V268.131C569.852 268.314 569.559 268.441 569.262 268.512C568.969 268.582 568.598 268.617 568.148 268.617ZM574.424 267.193C574.736 267.193 575.111 267.125 575.549 266.988V268.318C575.104 268.518 574.557 268.617 573.908 268.617C573.193 268.617 572.672 268.438 572.344 268.078C572.02 267.715 571.857 267.172 571.857 266.449V263.291H571.002V262.535L571.986 261.938L572.502 260.555H573.645V261.949H575.479V263.291H573.645V266.449C573.645 266.703 573.715 266.891 573.855 267.012C574 267.133 574.189 267.193 574.424 267.193Z" fill="#878787"/>
<path d="M618.678 268.5H616.369L612.643 262.02H612.59C612.664 263.164 612.701 263.98 612.701 264.469V268.5H611.078V259.934H613.369L617.09 266.35H617.131C617.072 265.236 617.043 264.449 617.043 263.988V259.934H618.678V268.5ZM622.123 265.213C622.123 265.861 622.229 266.352 622.439 266.684C622.654 267.016 623.002 267.182 623.482 267.182C623.959 267.182 624.301 267.018 624.508 266.689C624.719 266.357 624.824 265.865 624.824 265.213C624.824 264.564 624.719 264.078 624.508 263.754C624.297 263.43 623.951 263.268 623.471 263.268C622.994 263.268 622.65 263.43 622.439 263.754C622.229 264.074 622.123 264.561 622.123 265.213ZM626.652 265.213C626.652 266.279 626.371 267.113 625.809 267.715C625.246 268.316 624.463 268.617 623.459 268.617C622.83 268.617 622.275 268.48 621.795 268.207C621.314 267.93 620.945 267.533 620.688 267.018C620.43 266.502 620.301 265.9 620.301 265.213C620.301 264.143 620.58 263.311 621.139 262.717C621.697 262.123 622.482 261.826 623.494 261.826C624.123 261.826 624.678 261.963 625.158 262.236C625.639 262.51 626.008 262.902 626.266 263.414C626.523 263.926 626.652 264.525 626.652 265.213ZM629.688 268.5L627.191 261.949H629.061L630.326 265.682C630.467 266.154 630.555 266.602 630.59 267.023H630.625C630.645 266.648 630.732 266.201 630.889 265.682L632.148 261.949H634.018L631.521 268.5H629.688Z" fill="#878787"/>
<path d="M677.186 264.135C677.186 265.545 676.783 266.625 675.979 267.375C675.178 268.125 674.02 268.5 672.504 268.5H670.078V259.934H672.768C674.166 259.934 675.252 260.303 676.025 261.041C676.799 261.779 677.186 262.811 677.186 264.135ZM675.299 264.182C675.299 262.342 674.486 261.422 672.861 261.422H671.895V267H672.674C674.424 267 675.299 266.061 675.299 264.182ZM681.533 263.098C681.154 263.098 680.857 263.219 680.643 263.461C680.428 263.699 680.305 264.039 680.273 264.48H682.781C682.773 264.039 682.658 263.699 682.436 263.461C682.213 263.219 681.912 263.098 681.533 263.098ZM681.785 268.617C680.73 268.617 679.906 268.326 679.312 267.744C678.719 267.162 678.422 266.338 678.422 265.271C678.422 264.174 678.695 263.326 679.242 262.729C679.793 262.127 680.553 261.826 681.521 261.826C682.447 261.826 683.168 262.09 683.684 262.617C684.199 263.145 684.457 263.873 684.457 264.803V265.67H680.232C680.252 266.178 680.402 266.574 680.684 266.859C680.965 267.145 681.359 267.287 681.867 267.287C682.262 267.287 682.635 267.246 682.986 267.164C683.338 267.082 683.705 266.951 684.088 266.771V268.154C683.775 268.311 683.441 268.426 683.086 268.5C682.73 268.578 682.297 268.617 681.785 268.617ZM688.57 268.617C686.531 268.617 685.512 267.498 685.512 265.26C685.512 264.146 685.789 263.297 686.344 262.711C686.898 262.121 687.693 261.826 688.729 261.826C689.486 261.826 690.166 261.975 690.768 262.271L690.24 263.654C689.959 263.541 689.697 263.449 689.455 263.379C689.213 263.305 688.971 263.268 688.729 263.268C687.799 263.268 687.334 263.928 687.334 265.248C687.334 266.529 687.799 267.17 688.729 267.17C689.072 267.17 689.391 267.125 689.684 267.035C689.977 266.941 690.27 266.797 690.562 266.602V268.131C690.273 268.314 689.98 268.441 689.684 268.512C689.391 268.582 689.02 268.617 688.57 268.617Z" fill="#878787"/>
<defs>
<linearGradient id="paint0_linear_8_18739" x1="113" y1="212" x2="555" y2="197" gradientUnits="userSpaceOnUse">
<stop stop-color="#44F189" stop-opacity="0.33"/>
<stop offset="0.127791" stop-color="#08B64E"/>
<stop offset="0.802083" stop-color="#08B64E"/>
<stop offset="1" stop-color="#44F189" stop-opacity="0"/>
</linearGradient>
<linearGradient id="paint1_linear_8_18739" x1="113.5" y1="211.634" x2="555.298" y2="193.913" gradientUnits="userSpaceOnUse">
<stop stop-color="#E4572E" stop-opacity="0.45"/>
<stop offset="0.127791" stop-color="#E4572E"/>
<stop offset="0.802083" stop-color="#E4572E"/>
<stop offset="1" stop-color="#E4572E" stop-opacity="0.43"/>
</linearGradient>
</defs>
</svg>
